# xmcd
#
# Track frame offsets: 
#        150
#        63170
#        92400
#        118962
#        155785
#        187670
#        225352
#
# Disc length: 3418 seconds
#
# Revision: 4
# Processed by: cddbd v1.5.2PL0 Copyright (c) Steve Scherf et al.
# Submitted via: ExactAudioCopy v0.99pb4
#
DISCID=4c0d5807
DTITLE=Jimmy Witherspoon - With The Duke Robillard Band
DYEAR=2000
DGENRE=Blues
TTITLE0=Glide On
TTITLE1=Going Down Slow
TTITLE2=Big Boss Man
TTITLE3=Aint Nobody's Business
TTITLE4=I'll Always Be In Love With You
TTITLE5=Stormy Monday Blues
TTITLE6=Times Gettin' Tougher Than Tough
EXTD=
EXTT0=
EXTT1=
EXTT2=
EXTT3=
EXTT4=
EXTT5=
EXTT6=
PLAYORDER=
